<?xml version="1.0" standalone="no"?>
<!DOCTYPE svg PUBLIC "-//W3C//DTD SVG 20010904//EN"
 "http://www.w3.org/TR/2001/REC-SVG-20010904/DTD/svg10.dtd">
<svg version="1.0" xmlns="http://www.w3.org/2000/svg"
 width="512.000000pt" height="512.000000pt" viewBox="0 0 512.000000 512.000000"
 preserveAspectRatio="xMidYMid meet">
<metadata>
Created by potrace 1.11, written by Peter Selinger 2001-2013
</metadata>
<g transform="translate(0.000000,512.000000) scale(0.100000,-0.100000)"
fill="#000000" stroke="none">
<path d="M1636 4763 c-2 -2 -16 -6 -31 -9 -15 -3 -42 -12 -59 -21 -25 -13
-323 -196 -576 -354 -25 -16 -229 -143 -455 -283 -445 -276 -448 -278 -448
-365 -1 -61 23 -100 82 -136 48 -29 324 -189 401 -233 25 -14 61 -35 80 -47
19 -12 42 -25 50 -29 8 -4 24 -12 35 -19 11 -7 43 -25 72 -41 28 -16 54 -35
57 -42 8 -21 -4 -44 -28 -55 -11 -5 -34 -18 -51 -28 -16 -10 -176 -103 -355
-206 -402 -232 -367 -210 -390 -247 -23 -39 -21 -109 6 -144 10 -14 132 -91
269 -170 138 -79 261 -151 275 -159 14 -8 121 -70 238 -137 l212 -122 0 -359
c0 -311 2 -364 16 -393 17 -35 82 -78 304 -203 41 -23 82 -46 90 -51 8 -5 40
-24 70 -41 30 -18 98 -57 150 -87 52 -30 113 -65 135 -77 22 -12 154 -89 294
-170 287 -166 306 -176 370 -179 94 -5 92 -6 666 327 66 38 136 78 155 89 82
47 437 253 465 269 16 11 39 23 50 28 11 6 87 50 170 98 102 60 156 99 172
121 22 33 22 37 22 400 -1 201 3 368 8 369 4 2 130 73 278 159 149 85 288 166
310 178 306 176 329 191 350 222 25 39 30 106 10 148 -23 47 -39 58 -371 248
-285 162 -437 253 -441 266 -9 22 7 40 59 70 40 23 250 145 502 293 33 20 95
56 136 80 41 23 85 54 97 68 25 28 37 80 28 121 -11 50 41 16 -1033 681 -267
165 -301 180 -388 172 -27 -2 -67 -12 -89 -22 -22 -10 -205 -115 -407 -234
-203 -118 -388 -223 -413 -233 -32 -12 -60 -15 -95 -11 -53 6 -54 7 -593 319
-143 82 -278 156 -300 165 -38 13 -152 25 -161 16z"/>
</g>
</svg>
