<?xml version="1.0" standalone="no"?>
<!DOCTYPE svg PUBLIC "-//W3C//DTD SVG 20010904//EN"
 "http://www.w3.org/TR/2001/REC-SVG-20010904/DTD/svg10.dtd">
<svg version="1.0" xmlns="http://www.w3.org/2000/svg"
 width="512.000000pt" height="512.000000pt" viewBox="0 0 512.000000 512.000000"
 preserveAspectRatio="xMidYMid meet">
<metadata>
Created by potrace 1.11, written by Peter Selinger 2001-2013
</metadata>
<g transform="translate(0.000000,512.000000) scale(0.100000,-0.100000)"
fill="#000000" stroke="none">
<path d="M3659 5094 c-72 -21 -106 -48 -344 -269 -30 -28 -169 -154 -219 -200
-13 -11 -67 -60 -121 -110 -54 -49 -106 -97 -115 -105 -44 -39 -188 -170 -229
-208 -25 -24 -77 -72 -116 -107 -38 -34 -82 -73 -96 -86 -14 -13 -65 -60 -113
-103 -48 -44 -99 -91 -114 -105 -15 -14 -70 -64 -121 -111 -51 -47 -103 -94
-115 -105 -12 -11 -67 -60 -121 -110 -55 -49 -126 -115 -159 -145 -33 -30 -67
-62 -76 -70 -9 -8 -35 -32 -57 -52 l-40 -37 -161 122 c-88 67 -226 172 -307
232 -80 61 -152 115 -158 121 -60 54 -303 224 -329 230 -80 18 -153 -7 -228
-77 -25 -23 -83 -76 -129 -118 -134 -121 -147 -135 -169 -177 -27 -54 -25
-146 6 -195 11 -19 63 -73 114 -119 201 -184 225 -206 268 -246 25 -24 54 -51
66 -61 24 -20 174 -156 279 -252 38 -36 72 -66 74 -67 3 -3 -12 -18 -129 -124
-89 -80 -115 -104 -196 -179 -67 -62 -237 -217 -264 -241 -231 -204 -259 -249
-230 -370 13 -54 33 -77 174 -205 49 -44 109 -100 135 -123 57 -55 119 -84
177 -84 45 0 114 28 150 59 10 10 64 52 119 93 55 41 107 80 115 87 8 7 112
85 230 174 192 145 249 189 286 218 6 5 33 25 60 44 l50 36 54 -52 c30 -29
104 -97 165 -152 60 -55 130 -119 155 -142 25 -23 54 -50 66 -60 19 -16 161
-146 234 -213 15 -14 69 -63 120 -110 51 -47 98 -90 104 -95 6 -6 61 -55 121
-110 106 -95 185 -168 230 -210 12 -11 64 -58 116 -105 51 -47 100 -92 109
-100 9 -8 58 -53 110 -100 51 -47 104 -94 116 -105 12 -11 64 -59 115 -106 52
-47 128 -116 169 -154 41 -38 99 -79 128 -92 63 -29 159 -36 217 -16 41 14 52
19 335 156 91 43 201 96 245 117 66 31 320 154 525 253 58 28 121 92 151 153
l24 49 0 1805 0 1805 -24 49 c-32 63 -94 124 -162 158 -51 26 -256 124 -504
243 -282 135 -396 190 -465 224 -132 67 -212 81 -301 55z m182 -2534 c0 -634
-2 -1154 -3 -1156 -2 -1 -60 40 -128 92 -69 53 -219 167 -335 255 -551 418
-830 629 -851 646 -13 10 -66 50 -118 88 -52 39 -95 72 -95 75 0 3 185 145
410 315 498 376 640 484 907 687 114 86 208 155 210 154 1 -2 3 -522 3 -1156z"/>
</g>
</svg>
